<svg xmlns="http://www.w3.org/2000/svg" xmlns:xlink="http://www.w3.org/1999/xlink">
    <defs>
        <symbol id="icons-instagram" viewBox="0 0 50 50" >
            <path d="M16 3C8.83 3 3 8.83 3 16v18c0 7.17 5.83 13 13 13h18c7.17 0 13-5.83 13-13V16c0-7.17-5.83-13-13-13zM37 11c1.1 0 2 0.9 2 2s-0.9 2-2 2-2-0.9-2-2 0.9-2 2-2zM25 14c6.07 0 11 4.93 11 11s-4.93 11-11 11-11-4.93-11-11 4.93-11 11-11zM25 16c-4.96 0-9 4.04-9 9s4.04 9 9 9 9-4.04 9-9-4.04-9-9-9z"></path>
        </symbol>
        <symbol id="icons-facebook" viewBox="0 0 50 50">
            <path d="M25 3C12.85 3 3 12.85 3 25c0 11.03 8.125 20.137 18.712 21.728V30.831h-5.443v-5.783h5.443V21.2c0-6.371 3.104-9.168 8.399-9.168 2.536 0 3.877 0.188 4.512 0.274v5.048h-3.612c-2.248 0-3.033 2.131-3.033 4.533v3.161h6.588l-0.894 5.783h-5.694v15.944C38.716 45.318 47 36.137 47 25 47 12.85 37.15 3 25 3z"></path>
        </symbol>
        <symbol id="icons-gmail" viewBox="0 0 50 50">
            <path d="M5.5 7C3.0195 7 1 9.0195 1 11.5v0.4258L25 29 49 11.9258V11.5C49 9.0195 46.9805 7 44.5 7zM6.3516 9h37.2929L25 22zM1 14.0273V38.5C1 40.9805 3.0195 43 5.5 43h39c2.4805 0 4.5-2.0195 4.5-4.5V14.0273l-6 4.2696V41H7V18.2969z"></path>
        </symbol>
        <symbol id="icons-telegram" viewBox="0 0 50 50">
            <path d="M25 2c12.703 0 23 10.297 23 23S37.703 48 25 48 2 37.703 2 25 12.297 2 25 2zM32.934 34.375c0.423-1.298 2.405-14.234 2.65-16.783 0.074-0.772-0.17-1.285-0.648-1.514-0.578-0.278-1.434-0.139-2.427 0.219-1.362 0.491-18.774 7.884-19.78 8.312-0.954 0.405-1.856 0.847-1.856 1.487 0 0.45 0.267 0.703 1.003 0.966 0.766 0.273 2.695 0.858 3.834 1.172 1.097 0.303 2.346 0.04 3.046-0.395 0.742-0.461 9.305-6.191 9.92-6.693 0.614-0.502 1.104 0.141 0.602 0.644-0.502 0.502-6.38 6.207-7.155 6.997-0.941 0.959-0.273 1.953 0.358 2.351 0.721 0.454 5.906 3.932 6.687 4.49s1.573 0.811 2.298 0.811 1.107-0.955 1.468-2.064z"></path>
        </symbol>
         <symbol id="icons-404" viewBox="0 0 512 512" fill="currentColor" version="1.1" xmlns:xlink="http://www.w3.org/1999/xlink">
            <path d="M170.667 320.007V320c0-11.782-9.551-21.333-21.333-21.333S128 308.218 128 320v-56.89c0-11.782-9.551-21.333-21.333-21.333s-21.333 9.551-21.333 21.333v78.229c-1e-3 11.783 9.551 21.334 21.333 21.334H128v42.66c0 11.782 9.551 21.333 21.333 21.333s21.333-9.551 21.333-21.333v-42.66c11.782 0 21.333-9.551 21.333-21.333 1e-3-11.782-9.55-21.333-21.332-21.333z"></path>
            <path d="M426.667 320.007V320c0-11.782-9.551-21.333-21.333-21.333S384 308.218 384 320v-56.89c0-11.782-9.551-21.333-21.333-21.333s-21.333 9.551-21.333 21.333v78.229c-1e-3 11.783 9.551 21.334 21.333 21.334H384v42.66c0 11.782 9.551 21.333 21.333 21.333s21.333-9.551 21.333-21.333v-42.66c11.782 0 21.333-9.551 21.333-21.333 1e-3-11.782-9.55-21.333-21.332-21.333z"></path>
            <path d="M266.667 256c-29.446 0-53.333 23.887-53.333 53.333v64c-1e-3 29.446 23.887 53.334 53.333 53.334S320 402.78 320 373.334v-64C320 279.887 296.114 256 266.667 256zM277.334 373.333c0 5.882-4.785 10.667-10.667 10.667S256 379.215 256 373.333v-64c0-5.882 4.785-10.667 10.667-10.667s10.667 4.785 10.667 10.667z"></path>
            <path d="M490.667 0H21.333C9.552 0 0 9.551 0 21.333V192 490.667C0 502.449 9.552 512 21.333 512h469.333c11.782 0 21.333-9.551 21.333-21.333V192 21.333C512 9.551 502.45 0 490.667 0zM469.334 469.333v0H42.667v-256h426.667zM469.334 170.667H42.667v-128h426.667z"></path>
            <path d="M435.505 106.666l6.248-6.248c8.331-8.331 8.331-21.838 0-30.17-8.331-8.331-21.839-8.331-30.17 0l-6.248 6.248-6.248-6.248c-8.331-8.331-21.839-8.331-30.17 0s-8.331 21.839 0 30.17l6.248 6.248-6.248 6.248c-8.331 8.331-8.331 21.839 0 30.17s21.839 8.331 30.17 0l6.248-6.248 6.248 6.248c8.331 8.331 21.839 8.331 30.17 0s8.331-21.839 0-30.17z"></path>
            <path d="M256 85.333H85.333C73.552 85.333 64 94.885 64 106.667S73.552 128 85.333 128H256c11.782 0 21.333-9.551 21.333-21.333S267.783 85.333 256 85.333z"></path>
        </symbol>
        <symbol id="icons-error" viewBox="0 0 24 24" stroke="currentColor" fill="none">
            <path stroke-width="3" stroke-linejoin="round" d="M13.253 5.98 12 13.5 10.747 5.98a1.27 1.27 0 1 1 2.506 0z"></path>
            <circle stroke-width="2" cx="12" cy="19" r="1"></circle>
        </symbol>
  <symbol id="icons-book" viewBox="0 0 792 612" enable-background="new 0 0 792 612" version="1.1" xmlns:xlink="http://www.w3.org/1999/xlink">
            <g fill="currentColor">
                <path fill="transparent" d="M110.79 269.651 213.757 440.199l8.975 10.392 78.406-34.007 95.845-38.731 18.773-1.888 25.662 1.416 21.609-8.503L493.139 354l177.207-20.979c0 0 18.217-1.93 7.473-15.391l-34.48-27.395-0.749-11.335-166.811-117.491c0 0-62.594 0.708-95.527 3.07 0 0-24.915 1.771-38.258 7.912-2.41 1.109-15.587 4.723-32.591 27.395 0 0-44.672-23.696-77.263-13.304 0 0-50.502 16.138-104.168 53.867-8.272 5.815-10.008 17.137-9.94 27.295z"></path>
                <path d="M130.852 242.294c0 0-14.352 16.768-9.707 23.853l103.912 165.472c0 0 7.557-29.835 3.385-38.572z"></path>
                <path d="M232.73 396.076c0 0-8.383 42.155-2.36 39.202 0 0 104.502-73.209 189.757-69.549 0 0 21.314-33.005 16.412-40.03 0 0-53.41-12.084-139.217 34.48z"></path>
                <path d="M435.949 343.057c0 0 29.641-14.352 32.119 9.447 0 0 27.158-32.354 176.887-33.063 0 0-6.141-29.282-6.141-39.203 0 0-152.09-7.084-186.57 38.258"></path>
                <path d="M311.965 201.832c34.243 29.285 96.354 102.147 131.424 122.458 0 0 4.389-53.541 190.072-47.514 0 0-118.217-88.677-160.748-113.359 0 0-89.191-2.007-129.104 10.785 0-1e-3-37.609 22.529-31.644 27.63z"></path>
                <path d="M232.613 393.124c0 0 115.72-81.713 199.637-70.691 0 0-108.084-107.888-133.826-124.143 0 0-46.008-34.579-127.213 19.837l-36.605 21.255z"></path>
            </g>
        </symbol>
        <symbol id="icons-wishlist" viewBox="0 0 64 64" enable-background="new 0 0 64 64" version="1.0" xmlns:xlink="http://www.w3.org/1999/xlink">
            <g fill="currentColor">
                <path d="M8 60c0 2.211 1.789 4 4 4h40c2.211 0 4-1.789 4-4v-2H8z"></path>
                <path d="M36 36c-0.553 0-1.053 0.224-1.414 0.586l-1.879 1.871c-0.391 0.391-1.023 0.391-1.414 0l-1.879-1.871C29.053 36.224 28.553 36 28 36c-1.104 0-2 0.896-2 2 0 0.553 0.481 1.076 0.844 1.438L32 44.594l5.156-5.156C37.519 39.076 38 38.553 38 38c0-1.104-0.896-2-2-2z"></path>
                <path d="M54 20H44v-8c0-6.627-5.373-12-12-12S20 5.373 20 12v8H10c-1.105 0-2 0.895-2 2v34h48V22c0-1.105-0.895-2-2-2zM38.547 40.875l-5.84 5.841c-0.391 0.391-1.023 0.391-1.414 0l-5.855-5.856C24.713 40.136 24 39.104 24 38c0-2.209 1.791-4 4-4 1.104 0 2.104 0.448 2.828 1.172L32 36.336l1.172-1.164C33.896 34.448 34.896 34 36 34c2.209 0 4 1.791 4 4 0 1.104-0.729 2.151-1.453 2.875zM26 20v-8c0-3.313 2.687-6 6-6s6 2.687 6 6v8zM42 23c0 0.553-0.447 1-1 1s-1-0.447-1-1V12c0-4.418-3.582-8-8-8s-8 3.582-8 8v11c0 0.553-0.447 1-1 1s-1-0.447-1-1V12c0-5.522 4.478-10 10-10s10 4.478 10 10z"></path>
            </g>
        </symbol>
        <symbol id="icons-shopping" viewBox="0 0 64 64" enable-background="new 0 0 64 64" version="1.0" xmlns:xlink="http://www.w3.org/1999/xlink">
            <g fill="currentColor">
                <path d="M27 24c-0.553 0-1 0.447-1 1v16c0 0.553 0.447 1 1 1s1-0.447 1-1V25c0-0.553-0.447-1-1-1z"></path>
                <path d="M37 24c-0.553 0-1 0.447-1 1v16c0 0.553 0.447 1 1 1s1-0.447 1-1V25c0-0.553-0.447-1-1-1z"></path>
                <path d="M47 24c-0.553 0-1 0.447-1 1v16c0 0.553 0.447 1 1 1s1-0.447 1-1V25c0-0.553-0.447-1-1-1z"></path>
                <path d="M60.476 16H15.059L12 3c-0.438-1.75-1.614-3-3.271-3H3C1.343 0 0 1.343 0 3s1.343 3 3 3h3.723l3.371 14 5.921 26 1.777 6.458C15.619 53.359 14.09 55.501 14.09 58c0 3.313 2.687 6 6 6 2.972 0 5.433-2.162 5.91-5h14.09c0.478 2.838 2.938 5 5.91 5 3.313 0 6-2.687 6-6s-2.687-6-6-6c-2.972 0-5.433 2.164-5.91 5H26c-0.478-2.836-2.938-5-5.91-5-0.125 0-0.246 0.012-0.369 0.019l-0.642-2.258C19.507 49.904 19.972 50 20.505 50h32.969c2.625 0 3.908-1.904 4.5-4l5.933-26c0.437-2.417-0.642-4-3.431-4zM46 57c0.553 0 1 0.447 1 1s-0.447 1-1 1-1-0.447-1-1 0.447-1 1-1zM20 57c0.553 0 1 0.447 1 1s-0.447 1-1 1-1-0.447-1-1 0.447-1 1-1zM30 41c0 1.657-1.343 3-3 3s-3-1.343-3-3V25c0-1.657 1.343-3 3-3s3 1.343 3 3zM40 41c0 1.657-1.343 3-3 3s-3-1.343-3-3V25c0-1.657 1.343-3 3-3s3 1.343 3 3zM50 41c0 1.657-1.343 3-3 3s-3-1.343-3-3V25c0-1.657 1.343-3 3-3s3 1.343 3 3z"></path>
            </g>
        </symbol>
         <symbol id="icons-details" viewBox="0 0 32 32">
            <path fill="currentColor" d="M16 0c8.8366 0 16 7.1634 16 16s-7.1634 16-16 16S0 24.8366 0 16 7.1634 0 16 0zM17.3 20.5h-2.6v2.6h2.6zM16 9c-2.2091 0-4 1.7909-4 4h2l55e-4-0.1493C14.0818 11.8159 14.9456 11 16 11c1.1046 0 2 0.8954 2 2s-0.8954 2-2 2h-1v4h2l7e-4-2.1262C18.7256 16.4295 20 14.8636 20 13c0-2.2091-1.7909-4-4-4z" fill-rule="evenodd"></path>
        </symbol>
         <symbol id="icons-remove" viewBox="0 0 1200 1200" fill="currentColor" enable-background="new 0 0 1200 1200" version="1.1" xmlns:xlink="http://www.w3.org/1999/xlink">
            <path id="path18632" d="M600 0C268.629 0 0 268.629 0 600s268.629 600 600 600 600-268.629 600-600S931.371 0 600 0zM411.475 262.5 600 451.025 788.525 262.5 937.5 411.475 748.975 600 937.5 788.525 788.525 937.5 600 748.975 411.475 937.5 262.5 788.525 451.025 600 262.5 411.475z"></path>
        </symbol>
    </defs>
</svg>